<svg width="43" height="40" viewBox="0 0 43 40" fill="none" xmlns="http://www.w3.org/2000/svg">
<path fill-rule="evenodd" clip-rule="evenodd" d="M22 28.9495V30H24C24.5523 30 25 29.5551 25 29.0066V12H20.9979C19.8945 12 19 11.1134 19 9.99408V5H8.99558C8.44574 5 8 5.45526 8 5.99546V29.0045C8 29.5543 8.45471 30 8.99996 30H17V28.9495C16.3814 28.3182 16 27.4537 16 26.5C16 24.567 17.567 23 19.5 23C21.433 23 23 24.567 23 26.5C23 27.4537 22.6186 28.3182 22 28.9495ZM18 29.6632V33.6L19.5 32.1L21 33.6V29.6632C20.5454 29.8792 20.0368 30 19.5 30C18.9632 30 18.4546 29.8792 18 29.6632ZM22 31H24.0026C25.1057 31 26 30.1018 26 29.0092V11L20 4H9.00276C7.89667 4 7 4.89834 7 6.00733V28.9927C7 30.1013 7.89093 31 8.99742 31H17V36L19.5 33.5L22 36V31ZM20 5.5V9.99122C20 10.5484 20.4507 11 20.9967 11H24.7L20 5.5ZM10 11V12H17V11H10ZM10 8V9H17V8H10ZM10 14V15H23V14H10ZM10 17V18H23V17H10ZM10 20V21H23V20H10ZM19.5 29C20.8807 29 22 27.8807 22 26.5C22 25.1193 20.8807 24 19.5 24C18.1193 24 17 25.1193 17 26.5C17 27.8807 18.1193 29 19.5 29Z" fill="#BE1300"/>
</svg>
