<svg width="40" height="40" viewBox="0 0 40 40" fill="none" xmlns="http://www.w3.org/2000/svg">
<path d="M22.1533 10.1049C22.6061 10.1049 23.0487 9.97066 23.4253 9.71914C23.8018 9.46762 24.0953 9.11012 24.2687 8.69183C24.4421 8.27353 24.4876 7.81321 24.3995 7.36907C24.3113 6.92492 24.0934 6.51687 23.7734 6.19651C23.4534 5.87615 23.0456 5.65785 22.6016 5.56921C22.1575 5.48057 21.6972 5.52556 21.2787 5.6985C20.8602 5.87144 20.5024 6.16457 20.2504 6.54083C19.9985 6.91709 19.8638 7.35959 19.8633 7.8124C19.8633 8.41998 20.1045 9.00271 20.5339 9.43256C20.9632 9.86242 21.5457 10.1042 22.1533 10.1049ZM22.1533 6.16303C22.4802 6.1634 22.7996 6.26071 23.0712 6.44265C23.3427 6.6246 23.5543 6.883 23.679 7.18517C23.8036 7.48734 23.8359 7.8197 23.7717 8.14021C23.7075 8.46073 23.5496 8.75499 23.3181 8.98579C23.0866 9.21658 22.7919 9.37353 22.4712 9.43679C22.1505 9.50005 21.8182 9.46677 21.5164 9.34116C21.2146 9.21555 20.9569 9.00326 20.7758 8.73114C20.5946 8.45902 20.4983 8.13929 20.4989 7.8124C20.5001 7.37445 20.6749 6.95484 20.985 6.64563C21.2952 6.33642 21.7153 6.16286 22.1533 6.16303Z" fill="#BE1300"/>
<path d="M13.8441 10.1049C14.2969 10.105 14.7396 9.97089 15.1162 9.71945C15.4928 9.468 15.7865 9.11054 15.96 8.69226C16.1334 8.27397 16.179 7.81364 16.0909 7.36945C16.0029 6.92526 15.7851 6.51716 15.4651 6.19673C15.1451 5.87631 14.7373 5.65795 14.2932 5.56926C13.8491 5.48056 13.3887 5.52552 12.9702 5.69844C12.5517 5.87137 12.1938 6.16449 11.9419 6.54076C11.6899 6.91704 11.5552 7.35956 11.5547 7.8124C11.5547 8.41987 11.7958 9.0025 12.225 9.43234C12.6543 9.86218 13.2366 10.1041 13.8441 10.1049ZM13.8441 6.16303C14.1711 6.16291 14.4907 6.2598 14.7626 6.44144C15.0345 6.62308 15.2464 6.88131 15.3715 7.18343C15.4966 7.48556 15.5292 7.818 15.4653 8.13868C15.4013 8.45936 15.2437 8.75386 15.0123 8.98491C14.7809 9.21595 14.4862 9.37315 14.1654 9.43661C13.8446 9.50007 13.5122 9.46693 13.2103 9.3414C12.9083 9.21587 12.6504 9.00357 12.4692 8.7314C12.288 8.45922 12.1916 8.1394 12.1922 7.8124C12.1933 7.37488 12.3678 6.95565 12.6774 6.64651C12.987 6.33738 13.4065 6.16352 13.8441 6.16303Z" fill="#BE1300"/>
<path d="M31.6091 17.8587H30.7672C30.7028 16.9728 30.3764 16.126 29.8297 15.4259C29.283 14.7258 28.5405 14.204 27.6966 13.9268C28.1544 13.6275 28.5034 13.1884 28.6916 12.6748C28.8797 12.1613 28.897 11.6006 28.7409 11.0764C28.5848 10.5522 28.2636 10.0924 27.825 9.76543C27.3865 9.43848 26.8542 9.26187 26.3072 9.26187C25.7602 9.26187 25.2278 9.43848 24.7893 9.76543C24.3508 10.0924 24.0296 10.5522 23.8735 11.0764C23.7173 11.6006 23.7346 12.1613 23.9228 12.6748C24.111 13.1884 24.46 13.6275 24.9178 13.9268C24.2957 14.1319 23.7259 14.4704 23.2484 14.9188C22.7709 15.3671 22.3972 15.9145 22.1534 16.5224C21.9096 15.9144 21.5357 15.3671 21.0581 14.9187C20.5805 14.4703 20.0106 14.1318 19.3884 13.9268C19.8465 13.6275 20.1956 13.1883 20.3839 12.6746C20.5722 12.1609 20.5896 11.6001 20.4334 11.0757C20.2773 10.5513 19.956 10.0913 19.5174 9.76424C19.0787 9.43718 18.5462 9.2605 17.9991 9.2605C17.4519 9.2605 16.9194 9.43718 16.4808 9.76424C16.0421 10.0913 15.7208 10.5513 15.5647 11.0757C15.4085 11.6001 15.4259 12.1609 15.6142 12.6746C15.8025 13.1883 16.1516 13.6275 16.6097 13.9268C15.9875 14.1318 15.4176 14.4703 14.94 14.9187C14.4624 15.3671 14.0885 15.9144 13.8447 16.5224C13.6009 15.9145 13.2272 15.3671 12.7497 14.9188C12.2722 14.4704 11.7024 14.1319 11.0803 13.9268C11.5384 13.6275 11.8875 13.1883 12.0758 12.6746C12.2641 12.1609 12.2815 11.6001 12.1253 11.0757C11.9692 10.5513 11.6479 10.0913 11.2092 9.76424C10.7706 9.43718 10.2381 9.2605 9.69094 9.2605C9.14379 9.2605 8.61126 9.43718 8.17263 9.76424C7.73399 10.0913 7.41269 10.5513 7.25655 11.0757C7.10042 11.6001 7.11779 12.1609 7.30608 12.6746C7.49437 13.1883 7.84352 13.6275 8.30156 13.9268C7.45764 14.204 6.71515 14.7258 6.16842 15.4259C5.62168 16.126 5.29537 16.9728 5.23094 17.8587H4.38906C4.30452 17.8587 4.22345 17.8923 4.16367 17.9521C4.10389 18.0118 4.07031 18.0929 4.07031 18.1774C4.07031 18.262 4.10389 18.3431 4.16367 18.4028C4.22345 18.4626 4.30452 18.4962 4.38906 18.4962H24.3266C23.9193 18.8015 23.591 19.1998 23.3693 19.658C23.1475 20.1161 23.0387 20.6207 23.0519 21.1295C23.0651 21.6383 23.2 22.1366 23.4453 22.5826C23.6905 23.0286 24.039 23.4093 24.4616 23.6931C23.4336 23.887 22.4822 24.37 21.7191 25.0856L18.7228 27.8887L15.2147 24.4593C14.5428 23.8024 13.4859 23.7974 12.7853 24.4643C12.6171 24.625 12.483 24.8179 12.3908 25.0314C12.2987 25.245 12.2504 25.475 12.249 25.7076C12.2475 25.9402 12.2929 26.1707 12.3823 26.3854C12.4718 26.6001 12.6035 26.7947 12.7697 26.9574L16.7616 30.7881C17.2835 31.2848 17.9729 31.5675 18.6933 31.5801C19.4137 31.5927 20.1126 31.3344 20.6516 30.8562L22.4559 29.2412L22.5809 34.1637C22.5826 34.2471 22.6169 34.3266 22.6765 34.3851C22.7361 34.4435 22.8162 34.4762 22.8997 34.4762H22.9078C22.9498 34.4754 22.9913 34.4663 23.0298 34.4494C23.0683 34.4325 23.103 34.4082 23.1321 34.3778C23.1611 34.3474 23.1839 34.3116 23.199 34.2724C23.2141 34.2332 23.2214 34.1913 23.2203 34.1493L23.0778 28.5381C23.0763 28.4772 23.0573 28.4181 23.0233 28.3677C22.9892 28.3173 22.9414 28.2777 22.8855 28.2535C22.8296 28.2294 22.768 28.2218 22.708 28.2316C22.6479 28.2413 22.5919 28.2681 22.5466 28.3087L20.2278 30.3831C19.8089 30.7546 19.2658 30.9554 18.7059 30.9455C18.146 30.9357 17.6103 30.716 17.2047 30.3299L13.2153 26.4999C13.1103 26.3972 13.0272 26.2742 12.971 26.1384C12.9148 26.0026 12.8867 25.8569 12.8884 25.7099C12.8919 25.4935 12.9583 25.2826 13.0794 25.1032C13.2005 24.9237 13.3712 24.7833 13.5707 24.6991C13.7701 24.6148 13.9898 24.5904 14.2029 24.6287C14.416 24.6671 14.6133 24.7665 14.7709 24.9149L18.4991 28.5581C18.5576 28.6146 18.6355 28.6466 18.7168 28.6475C18.7982 28.6484 18.8768 28.6182 18.9366 28.5631L22.1553 25.5512C23.0587 24.7035 24.2515 24.2325 25.4903 24.2343H27.1991C28.1451 24.2353 29.0521 24.6116 29.721 25.2805C30.3899 25.9494 30.7662 26.8564 30.7672 27.8024V34.1556C30.7672 34.2401 30.8008 34.3212 30.8605 34.381C30.9203 34.4407 31.0014 34.4743 31.0859 34.4743C31.1705 34.4743 31.2516 34.4407 31.3113 34.381C31.3711 34.3212 31.4047 34.2401 31.4047 34.1556V27.8024C31.4039 26.8312 31.0675 25.89 30.4525 25.1383C29.8374 24.3866 28.9816 23.8705 28.0297 23.6774C28.4492 23.3923 28.7945 23.011 29.0369 22.5654C29.2793 22.1198 29.4117 21.6228 29.4231 21.1157C29.4345 20.6085 29.3247 20.106 29.1026 19.65C28.8806 19.1939 28.5528 18.7975 28.1466 18.4937H31.6059C31.6478 18.4937 31.6892 18.4854 31.7279 18.4694C31.7666 18.4534 31.8017 18.4299 31.8313 18.4003C31.8609 18.3707 31.8844 18.3356 31.9004 18.2969C31.9164 18.2583 31.9247 18.2168 31.9247 18.1749C31.9247 18.1331 31.9164 18.0916 31.9004 18.053C31.8844 18.0143 31.8609 17.9792 31.8313 17.9496C31.8017 17.92 31.7666 17.8965 31.7279 17.8805C31.6892 17.8644 31.6478 17.8562 31.6059 17.8562L31.6091 17.8587ZM24.4053 11.8024C24.4053 11.4261 24.5169 11.0583 24.726 10.7454C24.9351 10.4325 25.2322 10.1887 25.5799 10.0447C25.9276 9.90073 26.3101 9.86309 26.6792 9.93654C27.0483 10.01 27.3873 10.1913 27.6533 10.4574C27.9193 10.7235 28.1005 11.0626 28.1738 11.4317C28.2472 11.8008 28.2094 12.1833 28.0653 12.5309C27.9212 12.8786 27.6773 13.1756 27.3643 13.3846C27.0514 13.5936 26.6835 13.7051 26.3072 13.7049C25.8029 13.7043 25.3194 13.5036 24.9629 13.1469C24.6063 12.7903 24.4058 12.3068 24.4053 11.8024ZM16.0966 11.8024C16.0966 11.4262 16.2081 11.0583 16.4172 10.7455C16.6262 10.4326 16.9234 10.1888 17.271 10.0448C17.6186 9.90077 18.0012 9.86309 18.3702 9.9365C18.7393 10.0099 19.0783 10.1911 19.3443 10.4572C19.6104 10.7232 19.7916 11.0622 19.865 11.4313C19.9384 11.8003 19.9007 12.1829 19.7567 12.5305C19.6127 12.8781 19.3689 13.1753 19.056 13.3843C18.7432 13.5934 18.3753 13.7049 17.9991 13.7049C17.4947 13.7043 17.0112 13.5036 16.6545 13.147C16.2979 12.7903 16.0972 12.3068 16.0966 11.8024ZM17.9991 14.3424C18.9606 14.3436 19.8867 14.7055 20.5943 15.3566C21.3019 16.0077 21.7394 16.9006 21.8203 17.8587H14.1778C14.2587 16.9006 14.6962 16.0077 15.4038 15.3566C16.1114 14.7055 17.0375 14.3436 17.9991 14.3424ZM7.78844 11.8024C7.78844 11.4262 7.90002 11.0583 8.10907 10.7455C8.31812 10.4326 8.61525 10.1888 8.96288 10.0448C9.31052 9.90077 9.69305 9.86309 10.0621 9.9365C10.4311 10.0099 10.7701 10.1911 11.0362 10.4572C11.3023 10.7232 11.4835 11.0622 11.5569 11.4313C11.6303 11.8003 11.5926 12.1829 11.4486 12.5305C11.3046 12.8781 11.0608 13.1753 10.7479 13.3843C10.435 13.5934 10.0672 13.7049 9.69094 13.7049C9.18652 13.7044 8.7029 13.5038 8.34621 13.1472C7.98953 12.7905 7.78893 12.3069 7.78844 11.8024ZM9.69094 14.3424C10.6524 14.3436 11.5785 14.7055 12.2859 15.3566C12.9934 16.0077 13.4308 16.9006 13.5116 17.8587H5.86969C5.95075 16.9006 6.3883 16.0078 7.09584 15.3567C7.80338 14.7057 8.72943 14.3437 9.69094 14.3424ZM28.7897 21.0468C28.7897 21.5513 28.6401 22.0444 28.3598 22.4639C28.0796 22.8833 27.6812 23.2102 27.2151 23.4033C26.7491 23.5963 26.2362 23.6469 25.7415 23.5484C25.2467 23.45 24.7922 23.2071 24.4355 22.8504C24.0788 22.4937 23.8359 22.0392 23.7374 21.5444C23.639 21.0496 23.6895 20.5368 23.8826 20.0707C24.0756 19.6047 24.4026 19.2063 24.822 18.9261C25.2415 18.6458 25.7346 18.4962 26.2391 18.4962C26.9153 18.4969 27.5637 18.7658 28.0419 19.244C28.5201 19.7222 28.789 20.3706 28.7897 21.0468ZM22.4866 17.8593C22.567 16.9013 23.0044 16.0084 23.7121 15.3576C24.4197 14.7068 25.3461 14.3457 26.3075 14.3457C27.2689 14.3457 28.1953 14.7068 28.9029 15.3576C29.6106 16.0084 30.048 16.9013 30.1284 17.8593H22.4866Z" fill="#BE1300"/>
</svg>
