<svg width="40" height="40" viewBox="0 0 40 40" fill="none" xmlns="http://www.w3.org/2000/svg">
<g clip-path="url(#clip0_36_554)">
<path d="M8.67823 8.61943H10.8643V7.40015C10.8643 5.71486 12.2401 4.33911 13.9253 4.33911H31.3236C33.0089 4.33911 34.3847 5.71486 34.3847 7.40015V28.3195C34.3847 30.0048 33.0086 31.3801 31.3236 31.3801H29.1376V32.5998C29.1376 34.2851 27.7618 35.6608 26.0765 35.6608H8.67823C6.99294 35.6608 5.61719 34.2851 5.61719 32.5998V11.6805C5.61719 9.99517 6.99294 8.61943 8.67823 8.61943ZM12.4298 8.61943H26.0765C27.7618 8.61943 29.1376 9.99517 29.1376 11.6805V29.8146H31.3236C32.1442 29.8146 32.8188 29.14 32.8188 28.3195V7.40015C32.8188 6.57924 32.1446 5.90459 31.3236 5.90459H13.9253C13.1044 5.90459 12.4298 6.57924 12.4298 7.40015V8.61943ZM17.7396 15.9328C16.7101 15.9328 16.7101 14.3673 17.7396 14.3673H23.988C25.0175 14.3673 25.0175 15.9328 23.988 15.9328H17.7396ZM11.1293 30.4307C10.0997 30.4307 10.0997 28.8652 11.1293 28.8652H23.6255C24.655 28.8652 24.655 30.4307 23.6255 30.4307H11.1293ZM11.1293 21.8096C10.0997 21.8096 10.0997 20.2441 11.1293 20.2441H23.6255C24.655 20.2441 24.655 21.8096 23.6255 21.8096H11.1293ZM11.1293 24.6832C10.0997 24.6832 10.0997 23.1177 11.1293 23.1177H23.6255C24.655 23.1177 24.655 24.6832 23.6255 24.6832H11.1293ZM11.1293 27.5571C10.0997 27.5571 10.0997 25.9916 11.1293 25.9916H23.6255C24.655 25.9916 24.655 27.5571 23.6255 27.5571H11.1293ZM17.7396 18.4182C16.7101 18.4182 16.7101 16.8524 17.7396 16.8524H23.988C25.0175 16.8524 25.0175 18.4182 23.988 18.4182H17.7396ZM10.7668 13.8495H14.0119C14.4439 13.8495 14.7946 14.1999 14.7946 14.6323V18.1533C14.7946 18.5853 14.4439 18.936 14.0119 18.936H10.7668C10.3344 18.936 9.98405 18.5853 9.98405 18.1533V14.6323C9.98405 14.1999 10.3344 13.8495 10.7668 13.8495ZM13.2292 15.415H11.5495V17.3702H13.2292V15.415ZM26.0765 10.1849H8.67823C7.85731 10.1849 7.18305 10.8596 7.18305 11.6805V32.5998C7.18305 33.4207 7.85731 34.0953 8.67823 34.0953H26.0765C26.8974 34.0953 27.5721 33.4207 27.5721 32.5998V11.6805C27.5721 10.8596 26.8974 10.1849 26.0765 10.1849Z" fill="#BE1300"/>
</g>
<defs>
<clipPath id="clip0_36_554">
<rect width="31.9997" height="31.9997" fill="white" transform="translate(4 4)"/>
</clipPath>
</defs>
</svg>
