<svg width="40" height="40" viewBox="0 0 40 40" fill="none" xmlns="http://www.w3.org/2000/svg">
<path d="M17.8559 21.0689C17.9633 21.0689 18.0664 21.0262 18.1423 20.9502C18.2183 20.8743 18.2609 20.7713 18.2609 20.6639V20.0782H20.5734C20.6754 20.7337 21.0209 21.3266 21.541 21.7384C22.0611 22.1502 22.7174 22.3506 23.3789 22.2995C24.0403 22.2484 24.658 21.9495 25.1087 21.4627C25.5593 20.9759 25.8097 20.3369 25.8097 19.6735C25.8097 19.0102 25.5593 18.3712 25.1087 17.8844C24.658 17.3976 24.0403 17.0987 23.3789 17.0476C22.7174 16.9965 22.0611 17.1969 21.541 17.6087C21.0209 18.0205 20.6754 18.6134 20.5734 19.2689H15.7253C15.6179 19.2689 15.5149 19.3115 15.4389 19.3875C15.363 19.4634 15.3203 19.5664 15.3203 19.6739V21.0707C15.3203 21.1785 15.3631 21.2818 15.4393 21.358C15.5155 21.4342 15.6188 21.477 15.7266 21.477C15.8343 21.477 15.9376 21.4342 16.0138 21.358C16.09 21.2818 16.1328 21.1785 16.1328 21.0707V20.0782H17.4547V20.6639C17.4545 20.7707 17.4966 20.8732 17.5718 20.9491C17.647 21.025 17.7491 21.068 17.8559 21.0689ZM23.1653 17.8495C23.5261 17.8495 23.8789 17.9565 24.1789 18.1569C24.4789 18.3574 24.7127 18.6423 24.8508 18.9757C24.9889 19.3091 25.025 19.6759 24.9546 20.0298C24.8842 20.3837 24.7105 20.7087 24.4553 20.9639C24.2002 21.219 23.8751 21.3928 23.5212 21.4632C23.1673 21.5336 22.8005 21.4974 22.4672 21.3594C22.1338 21.2213 21.8489 20.9874 21.6484 20.6874C21.4479 20.3874 21.3409 20.0347 21.3409 19.6739C21.3414 19.1902 21.5338 18.7264 21.8758 18.3844C22.2179 18.0424 22.6816 17.85 23.1653 17.8495Z" fill="#BE1300"/>
<path d="M31.7605 29.4374H28.7118C28.6768 29.4373 28.6419 29.4419 28.608 29.4512L20.888 31.4924C20.2622 31.6892 19.5969 31.7252 18.9534 31.5972C18.3099 31.4692 17.7091 31.1813 17.2062 30.76L8.85242 24.2412C9.1859 23.9643 9.58742 23.7818 10.0153 23.7125C10.4432 23.6433 10.8818 23.6899 11.2855 23.8474L16.2068 26.1162C15.9761 26.3323 15.768 26.5712 15.5855 26.8293C15.4332 27.0474 15.3464 27.3044 15.3353 27.5702C15.3242 27.836 15.3894 28.0994 15.523 28.3293C15.6573 28.574 15.8592 28.7749 16.1046 28.9079C16.35 29.0409 16.6285 29.1004 16.9068 29.0793L23.858 28.5856C23.965 28.5779 24.0645 28.5281 24.1348 28.4472C24.2051 28.3662 24.2404 28.2607 24.233 28.1537C24.2232 28.0475 24.1727 27.9492 24.0921 27.8793C24.0115 27.8095 23.9071 27.7734 23.8005 27.7787L16.8493 28.2724C16.7236 28.2811 16.5981 28.2537 16.4875 28.1936C16.3768 28.1335 16.2855 28.0432 16.2243 27.9331C16.1658 27.8364 16.1367 27.7248 16.1404 27.6118C16.1442 27.4988 16.1807 27.3894 16.2455 27.2968C16.501 26.9436 16.8092 26.6316 17.1593 26.3718C18.793 25.6125 23.2174 23.6793 24.608 23.6062C26.2562 23.5081 28.608 24.9412 28.633 24.9556C28.6964 24.9939 28.769 25.0142 28.843 25.0143H31.7568C31.8645 25.0143 31.9679 24.9715 32.0441 24.8953C32.1202 24.8192 32.163 24.7158 32.163 24.6081C32.163 24.5003 32.1202 24.397 32.0441 24.3208C31.9679 24.2446 31.8645 24.2018 31.7568 24.2018H28.9574C28.4612 23.9137 26.2812 22.7093 24.5693 22.7943C22.8755 22.8824 17.9318 25.125 16.9574 25.5712L11.6043 23.1037C10.9738 22.8535 10.2808 22.8068 9.62244 22.9702C8.96408 23.1336 8.37335 23.4989 7.93304 24.0149C7.89751 24.0565 7.87076 24.1048 7.85442 24.157C7.83808 24.2091 7.83249 24.2641 7.83798 24.3185C7.84347 24.3728 7.85994 24.4255 7.88637 24.4734C7.91281 24.5212 7.94867 24.5632 7.99179 24.5968L16.6993 31.3906C17.3023 31.8952 18.0224 32.2402 18.7936 32.3938C19.5647 32.5475 20.3621 32.5049 21.1124 32.2699L28.7649 30.2456H31.7605C31.8651 30.2415 31.9641 30.197 32.0366 30.1216C32.1091 30.0461 32.1496 29.9455 32.1496 29.8409C32.1496 29.7362 32.1091 29.6356 32.0366 29.5602C31.9641 29.4847 31.8651 29.4403 31.7605 29.4362V29.4374Z" fill="#BE1300"/>
<path d="M22.8381 13.632C21.2043 14.392 16.78 16.3251 15.39 16.3976C13.7456 16.5001 11.39 15.0626 11.3643 15.0482C11.301 15.0099 11.2284 14.9896 11.1543 14.9895H8.24122C8.18674 14.9874 8.13238 14.9962 8.08142 15.0156C8.03045 15.035 7.98392 15.0644 7.94461 15.1022C7.90531 15.14 7.87404 15.1854 7.85268 15.2355C7.83132 15.2857 7.82031 15.3397 7.82031 15.3942C7.82031 15.4487 7.83132 15.5027 7.85268 15.5528C7.87404 15.603 7.90531 15.6483 7.94461 15.6861C7.98392 15.7239 8.03045 15.7534 8.08142 15.7728C8.13238 15.7921 8.18674 15.801 8.24122 15.7989H11.0437C11.5225 16.0764 13.5793 17.2107 15.25 17.2107C15.3125 17.2107 15.375 17.2107 15.4331 17.2064C17.1256 17.117 22.0693 14.8751 23.0437 14.4282L28.3968 16.8951C29.0274 17.1455 29.7206 17.1923 30.379 17.0288C31.0375 16.8654 31.6284 16.5 32.0687 15.9839C32.1039 15.9422 32.1303 15.8939 32.1464 15.8418C32.1624 15.7897 32.1679 15.7349 32.1623 15.6806C32.1568 15.6264 32.1404 15.5738 32.1141 15.5261C32.0878 15.4783 32.0522 15.4363 32.0093 15.4026L23.3018 8.60949C22.6986 8.10532 21.9785 7.76058 21.2075 7.60683C20.4365 7.45309 19.6392 7.49526 18.8887 7.72949L11.2368 9.75387H8.24122C8.13348 9.75387 8.03014 9.79667 7.95396 9.87286C7.87777 9.94904 7.83497 10.0524 7.83497 10.1601C7.83497 10.2679 7.87777 10.3712 7.95396 10.4474C8.03014 10.5236 8.13348 10.5664 8.24122 10.5664H11.2893C11.3244 10.5665 11.3593 10.5619 11.3931 10.5526L19.1131 8.50699C19.7389 8.30994 20.4043 8.27376 21.0478 8.40178C21.6913 8.52981 22.2922 8.81791 22.795 9.23949L31.1487 15.7582C30.8152 16.035 30.4136 16.2174 29.9858 16.2866C29.5579 16.3557 29.1193 16.309 28.7156 16.1514L23.7943 13.8832C24.0249 13.6672 24.233 13.4285 24.4156 13.1707C24.5678 12.9526 24.6545 12.6956 24.6656 12.4299C24.6767 12.1641 24.6116 11.9008 24.4781 11.6707C24.3425 11.4274 24.1403 11.2278 23.8951 11.0955C23.65 10.9632 23.3722 10.9037 23.0943 10.9239L16.1431 11.417C16.0362 11.4247 15.9366 11.4745 15.8663 11.5554C15.796 11.6364 15.7607 11.7419 15.7681 11.8489C15.7772 11.9553 15.8274 12.0539 15.908 12.1239C15.9886 12.1939 16.0934 12.2298 16.2 12.2239L23.1512 11.7301C23.2768 11.7227 23.4019 11.7506 23.5124 11.8107C23.6228 11.8708 23.7143 11.9607 23.7762 12.0701C23.8347 12.1668 23.8639 12.2784 23.8601 12.3914C23.8563 12.5044 23.8198 12.6138 23.755 12.7064C23.4985 13.06 23.1893 13.3722 22.8381 13.632Z" fill="#BE1300"/>
</svg>
