<svg width="40" height="40" viewBox="0 0 40 40" fill="none" xmlns="http://www.w3.org/2000/svg">
<path d="M33.7101 32.2901L27.2101 25.7901H27.1401C29.1435 23.4278 30.156 20.3824 29.9656 17.2908C29.7752 14.1992 28.3968 11.301 26.1186 9.20238C23.8405 7.10377 20.8391 5.96735 17.7423 6.03084C14.6455 6.09434 11.6932 7.35282 9.503 9.54304C7.31278 11.7333 6.0543 14.6856 5.99081 17.7823C5.92731 20.8791 7.06373 23.8805 9.16234 26.1587C11.261 28.4368 14.1592 29.8153 17.2508 30.0056C20.3424 30.196 23.3878 29.1836 25.7501 27.1801C25.7501 27.1801 25.7501 27.2301 25.7501 27.2501L32.2501 33.7501C32.343 33.8438 32.4536 33.9182 32.5755 33.969C32.6973 34.0198 32.828 34.0459 32.9601 34.0459C33.0921 34.0459 33.2228 34.0198 33.3446 33.969C33.4665 33.9182 33.5771 33.8438 33.6701 33.7501C33.7726 33.6593 33.8554 33.5485 33.9133 33.4244C33.9712 33.3003 34.003 33.1657 34.0068 33.0288C34.0105 32.8919 33.9861 32.7557 33.9351 32.6286C33.884 32.5016 33.8075 32.3863 33.7101 32.2901ZM18.0001 28.0001C16.0222 28.0001 14.0888 27.4136 12.4444 26.3148C10.7999 25.216 9.51814 23.6542 8.76126 21.8269C8.00438 19.9997 7.80635 17.989 8.1922 16.0492C8.57805 14.1094 9.53046 12.3276 10.929 10.929C12.3275 9.5305 14.1093 8.57809 16.0492 8.19224C17.989 7.80639 19.9996 8.00442 21.8269 8.7613C23.6542 9.51818 25.2159 10.7999 26.3148 12.4444C27.4136 14.0889 28.0001 16.0223 28.0001 18.0001C28.0001 19.3133 27.7414 20.6137 27.2389 21.8269C26.7363 23.0402 25.9997 24.1426 25.0711 25.0712C24.1425 25.9997 23.0401 26.7363 21.8269 27.2389C20.6136 27.7414 19.3133 28.0001 18.0001 28.0001Z" fill="#BE1300"/>
<path d="M18 17.125C18.5192 17.125 19.0267 16.971 19.4584 16.6826C19.8901 16.3942 20.2265 15.9842 20.4252 15.5045C20.6239 15.0249 20.6758 14.4971 20.5746 13.9879C20.4733 13.4787 20.2233 13.011 19.8562 12.6438C19.489 12.2767 19.0213 12.0267 18.5121 11.9254C18.0029 11.8242 17.4751 11.8761 16.9955 12.0748C16.5158 12.2735 16.1058 12.61 15.8174 13.0416C15.529 13.4733 15.375 13.9808 15.375 14.5C15.375 15.1962 15.6516 15.8639 16.1438 16.3562C16.6361 16.8484 17.3038 17.125 18 17.125ZM18 12.75C18.3461 12.75 18.6845 12.8526 18.9722 13.0449C19.26 13.2372 19.4843 13.5105 19.6168 13.8303C19.7492 14.1501 19.7839 14.5019 19.7164 14.8414C19.6488 15.1809 19.4822 15.4927 19.2374 15.7374C18.9927 15.9822 18.6809 16.1489 18.3414 16.2164C18.0019 16.2839 17.6501 16.2492 17.3303 16.1168C17.0105 15.9843 16.7372 15.76 16.5449 15.4722C16.3526 15.1845 16.25 14.8461 16.25 14.5C16.25 14.0359 16.4344 13.5908 16.7626 13.2626C17.0908 12.9344 17.5359 12.75 18 12.75Z" fill="#BE1300"/>
<path d="M18 17.5625C16.7236 17.5625 15.4996 18.0695 14.597 18.972C13.6945 19.8746 13.1875 21.0986 13.1875 22.375V23.6875C13.1875 23.8035 13.2336 23.9148 13.3156 23.9969C13.3977 24.0789 13.509 24.125 13.625 24.125H22.375C22.491 24.125 22.6023 24.0789 22.6844 23.9969C22.7664 23.9148 22.8125 23.8035 22.8125 23.6875V22.375C22.8125 21.0986 22.3055 19.8746 21.403 18.972C20.5004 18.0695 19.2764 17.5625 18 17.5625ZM21.9375 23.25H14.0625V22.375C14.0625 21.3307 14.4773 20.3292 15.2158 19.5908C15.9542 18.8523 16.9557 18.4375 18 18.4375C19.0443 18.4375 20.0458 18.8523 20.7842 19.5908C21.5227 20.3292 21.9375 21.3307 21.9375 22.375V23.25Z" fill="#BE1300"/>
</svg>
