<svg width="40" height="40" viewBox="0 0 40 40" fill="none" xmlns="http://www.w3.org/2000/svg">
<path d="M13.4183 23.9732C13.6683 24.1232 13.8117 24.7699 13.915 25.2432C14.0617 25.9099 14.185 26.4599 14.665 26.6466C14.7509 26.6806 14.8426 26.6976 14.935 26.6966C15.1361 26.6912 15.3305 26.6236 15.4917 26.5032L15.5183 26.4832C16.665 25.6666 16.6917 25.3866 16.2883 23.7632C15.925 22.3032 15.8017 22.1532 14.955 21.4299L14.6217 21.1466C13.5483 20.1932 12.4483 19.3632 12.4017 19.3266C12.321 19.2653 12.2237 19.23 12.1225 19.2252C12.0214 19.2205 11.9211 19.2466 11.8351 19.3001C11.7491 19.3536 11.6814 19.4319 11.6409 19.5247C11.6004 19.6175 11.589 19.7205 11.6083 19.8199C11.7317 20.3866 12.3317 23.3332 13.4183 23.9732ZM13.9683 21.8766C14.0917 21.9866 14.1983 22.0832 14.3017 22.1666C15.015 22.7932 15.015 22.7932 15.3317 23.9999C15.4552 24.3781 15.5237 24.7722 15.535 25.1699C15.5083 25.2632 15.3183 25.4032 15.0483 25.5932C14.9983 25.4299 14.945 25.1932 14.905 25.0199C14.745 24.2999 14.5717 23.4832 13.945 23.1099C13.6283 22.9199 13.245 22.0166 12.945 20.9932C13.2583 21.2632 13.615 21.5632 13.9683 21.8766ZM23.7683 20.2732H23.845C24.3917 20.1132 24.605 20.4066 24.6717 20.5399C24.9883 21.1766 23.735 22.2066 23.185 22.6199C22.8783 22.8466 22.8783 22.8466 23.155 23.5966C23.4317 24.3466 23.325 24.9299 22.9183 25.2632C22.7383 25.4132 22.225 25.7166 21.395 25.2299C21.2237 25.1162 21.0294 25.0417 20.826 25.0117C20.6226 24.9818 20.4151 24.9971 20.2183 25.0566C20.1287 25.1 20.0512 25.1652 19.993 25.2461C19.9348 25.3269 19.8977 25.4211 19.885 25.5199C19.8675 25.668 19.8036 25.8068 19.7024 25.9164C19.6012 26.0259 19.4679 26.1007 19.3217 26.1299C19.2828 26.1332 19.2438 26.1332 19.205 26.1299C18.8717 26.1299 18.5383 25.8699 18.205 25.3399C17.695 24.5299 17.1617 23.0066 17.7883 22.1332C17.8439 22.0574 17.9195 21.9985 18.0066 21.9632C18.0937 21.9279 18.189 21.9175 18.2817 21.9332C18.6042 21.9628 18.929 21.9136 19.2283 21.7899C19.2904 21.7587 19.3584 21.7407 19.4278 21.737C19.4972 21.7334 19.5666 21.7441 19.6317 21.7686C19.6968 21.7931 19.756 21.8308 19.8058 21.8794C19.8556 21.9279 19.8947 21.9863 19.9208 22.0507C19.9469 22.1151 19.9594 22.1843 19.9574 22.2538C19.9555 22.3233 19.9392 22.3916 19.9095 22.4545C19.8798 22.5174 19.8374 22.5734 19.785 22.6191C19.7326 22.6648 19.6713 22.6991 19.605 22.7199C19.259 22.8586 18.891 22.9342 18.5183 22.9432C18.4928 23.1502 18.5041 23.3601 18.5517 23.5632C18.6488 24.0165 18.826 24.4489 19.075 24.8399C19.2358 24.522 19.5021 24.2698 19.8283 24.1266C20.1695 24.0011 20.5352 23.9563 20.8966 23.9956C21.258 24.0349 21.6054 24.1573 21.9117 24.3532C22.0233 24.4361 22.1593 24.4795 22.2983 24.4766C22.3371 24.2906 22.3125 24.0969 22.2283 23.9266C21.8317 22.8399 21.8283 22.3832 22.5983 21.8066C22.8501 21.6105 23.0894 21.399 23.315 21.1732C23.2611 21.1482 23.2098 21.1181 23.1617 21.0832C23.005 20.9497 22.8793 20.7836 22.7936 20.5965C22.7078 20.4094 22.6639 20.2057 22.665 19.9999C22.6628 19.8886 22.6981 19.7797 22.7652 19.6909C22.8323 19.602 22.9273 19.5383 23.035 19.5099C23.1392 19.4793 23.2358 19.4271 23.3183 19.3566C23.3183 19.3566 23.2983 19.3199 23.265 19.2766C23.2428 19.2325 23.209 19.1953 23.1673 19.1689C23.1257 19.1425 23.0776 19.1279 23.0283 19.1266C22.7883 19.1266 22.3617 19.3699 21.9283 19.9166C21.7422 20.1489 21.5998 20.4132 21.5083 20.6966C21.4039 21.0105 21.2472 21.3047 21.045 21.5666C21.0055 21.621 20.9555 21.6669 20.8978 21.7016C20.8402 21.7362 20.7762 21.7589 20.7096 21.7683C20.643 21.7776 20.5752 21.7734 20.5103 21.7559C20.4453 21.7385 20.3846 21.7081 20.3317 21.6666C20.2795 21.6267 20.2358 21.5769 20.203 21.5201C20.1703 21.4632 20.1491 21.4004 20.1407 21.3353C20.1323 21.2702 20.1369 21.2041 20.1543 21.1408C20.1716 21.0775 20.2013 21.0183 20.2417 20.9666C20.3796 20.7835 20.4855 20.5784 20.555 20.3599C20.6854 19.981 20.8793 19.6271 21.1283 19.3132C21.725 18.5499 22.415 18.1232 23.045 18.1366C23.25 18.1411 23.4508 18.1954 23.6302 18.2946C23.8096 18.3939 23.9623 18.5353 24.075 18.7066C24.188 18.8439 24.2642 19.0078 24.2962 19.1828C24.3283 19.3578 24.3153 19.538 24.2583 19.7066C24.1609 19.9437 23.9889 20.1426 23.7683 20.2732ZM27.1483 30.3132C26.9274 30.7283 26.5981 31.0758 26.1954 31.3188C25.7928 31.5618 25.3319 31.6912 24.8617 31.6932C24.5213 31.6917 24.1834 31.6342 23.8617 31.5232C23.0476 31.2783 22.184 31.2484 21.355 31.4366C20.505 31.5699 19.5417 31.7232 19.0917 30.5732C19.0453 30.4055 18.9612 30.2507 18.8456 30.1207C18.73 29.9907 18.5861 29.8889 18.425 29.8232C18.2772 29.7914 18.1245 29.7907 17.9764 29.8211C17.8284 29.8516 17.6883 29.9124 17.565 29.9999C17.4289 30.0926 17.268 30.1422 17.1033 30.1422C16.9386 30.1422 16.7778 30.0926 16.6417 29.9999C16.3972 29.8214 16.2061 29.5797 16.0886 29.3007C15.9712 29.0218 15.9319 28.7161 15.975 28.4166C16.0273 28.1205 16.1686 27.8474 16.38 27.6337C16.5914 27.4199 16.8629 27.2756 17.1583 27.2199H17.225C18.5059 27.0923 19.7992 27.1858 21.0483 27.4966C21.5861 27.6574 22.103 27.8812 22.5883 28.1632C23.355 28.5799 23.7383 28.7899 24.4683 28.3332C24.7317 28.1699 24.9717 27.9999 25.1883 27.8632C25.9783 27.3366 26.5017 26.9899 27.0217 27.1966C27.1851 27.2842 27.3247 27.4105 27.4281 27.5645C27.5315 27.7185 27.5957 27.8954 27.615 28.0799C27.6542 28.2594 27.671 28.443 27.665 28.6266C27.6628 28.6922 27.6477 28.7568 27.6206 28.8166C27.5934 28.8765 27.5547 28.9304 27.5068 28.9752C27.4588 29.0201 27.4024 29.0551 27.3409 29.0782C27.2794 29.1013 27.214 29.1121 27.1483 29.1099C27.0827 29.1077 27.0181 29.0926 26.9583 29.0655C26.8984 29.0383 26.8445 28.9996 26.7997 28.9517C26.7548 28.9037 26.7198 28.8473 26.6967 28.7858C26.6736 28.7243 26.6628 28.6589 26.665 28.5932C26.6692 28.4939 26.6625 28.3944 26.645 28.2966C26.645 28.2466 26.625 28.2099 26.6183 28.1799C26.3181 28.3342 26.0296 28.5102 25.755 28.7066C25.5317 28.8566 25.2817 29.0199 25.0083 29.1932C23.785 29.9566 22.9383 29.4966 22.1217 29.0499C21.7015 28.8023 21.2541 28.6044 20.7883 28.4599C19.6756 28.1885 18.5255 28.104 17.385 28.2099C17.0517 28.3066 16.985 28.4766 16.9717 28.5966C16.9573 28.7823 17.0132 28.9667 17.1283 29.1132C17.3648 28.961 17.6307 28.8603 17.9087 28.8178C18.1867 28.7753 18.4705 28.7919 18.7417 28.8666C19.0461 28.9722 19.3215 29.1479 19.5455 29.3795C19.7696 29.6111 19.9361 29.8921 20.0317 30.1999C20.1683 30.5332 20.2583 30.5866 21.2083 30.4366C22.1963 30.2248 23.2219 30.2684 24.1883 30.5632C24.5714 30.7293 25.0035 30.7424 25.3959 30.5999C25.7883 30.4573 26.1112 30.1698 26.2983 29.7966C26.3655 29.6821 26.4754 29.599 26.6039 29.5655C26.7324 29.5321 26.8688 29.551 26.9833 29.6182C27.0978 29.6854 27.1809 29.7953 27.2144 29.9238C27.2478 30.0523 27.2288 30.1887 27.1617 30.3032L27.1483 30.3132ZM27.595 19.0266C27.3544 19.0817 27.1053 19.0896 26.8617 19.0499C26.375 19.0099 25.6383 18.9532 25.4617 19.6032C25.417 19.8211 25.4239 20.0464 25.4818 20.2611C25.5396 20.4758 25.6469 20.674 25.795 20.8399C25.968 21.0564 26.1892 21.2294 26.4409 21.3452C26.6927 21.461 26.9681 21.5162 27.245 21.5066C27.4117 21.5066 27.5783 21.4832 27.7117 21.4666L27.885 21.4466C27.8627 21.5727 27.8327 21.6974 27.795 21.8199C27.7083 22.1266 27.6183 22.3899 27.5383 22.6266C27.2517 23.4866 27.0217 24.1666 27.6217 24.8399C27.786 25.0243 27.9858 25.1736 28.2092 25.279C28.4325 25.3844 28.6749 25.4437 28.9217 25.4532C29.0997 25.4534 29.2754 25.4123 29.435 25.3332C29.5983 25.2499 30.1017 24.9066 29.915 24.0299C29.8937 23.9446 29.8968 23.855 29.9239 23.7713C29.951 23.6876 30.001 23.6132 30.0683 23.5566C30.0938 23.5293 30.1249 23.5077 30.1594 23.4934C30.1938 23.479 30.231 23.4721 30.2683 23.4732C30.2683 23.4732 30.3183 23.5299 30.335 23.6699C30.3679 23.9358 30.4813 24.1853 30.66 24.3849C30.8388 24.5845 31.0743 24.7247 31.335 24.7866C31.6069 24.8715 31.8976 24.8754 32.1716 24.7979C32.4457 24.7203 32.6913 24.5647 32.8783 24.3499C33.0917 24.0799 33.375 23.4899 32.8783 22.5432C32.6283 22.0799 32.4483 21.6766 32.305 21.3532C31.9317 20.5099 31.605 19.7732 30.565 20.0199C29.0883 18.8466 28.0983 18.5132 27.595 19.0266ZM30.095 20.9566C30.1616 21.0119 30.2414 21.0493 30.3266 21.065C30.4118 21.0808 30.4996 21.0744 30.5817 21.0466C30.9783 20.9066 30.9783 20.9066 31.3617 21.7699C31.5117 22.1032 31.695 22.5366 31.9683 23.0332C32.1417 23.3499 32.185 23.6132 32.085 23.7366C32.0194 23.7951 31.9397 23.8354 31.8538 23.8535C31.7678 23.8716 31.6786 23.8669 31.595 23.8399C31.527 23.8267 31.4647 23.7927 31.4169 23.7425C31.3691 23.6923 31.3382 23.6285 31.3283 23.5599C31.315 23.3449 31.2426 23.1378 31.1191 22.9614C30.9956 22.7849 30.8257 22.646 30.6283 22.5599C30.4207 22.4894 30.1978 22.4767 29.9835 22.5231C29.7692 22.5695 29.5716 22.6732 29.4117 22.8232C29.2071 22.9979 29.0548 23.2259 28.9719 23.4818C28.8889 23.7378 28.8785 24.0117 28.9417 24.2732C28.9545 24.3382 28.9545 24.405 28.9417 24.4699C28.8273 24.4707 28.7141 24.4467 28.61 24.3995C28.5058 24.3523 28.4131 24.2831 28.3383 24.1966C28.1417 23.9799 28.1817 23.7832 28.4583 22.9699C28.5417 22.7199 28.635 22.4432 28.7283 22.1199C28.875 21.6099 28.9683 21.0899 28.6717 20.7399C28.5877 20.6454 28.4836 20.5709 28.3671 20.5219C28.2506 20.4728 28.1246 20.4505 27.9983 20.4566C27.8589 20.4591 27.7197 20.4703 27.5817 20.4899C27.4617 20.4899 27.3317 20.5199 27.1917 20.5266C27.0704 20.5284 26.9505 20.5016 26.8416 20.4483C26.7327 20.395 26.6379 20.3167 26.565 20.2199C26.5166 20.1623 26.4783 20.0969 26.4517 20.0266C26.555 20.0266 26.6817 20.0266 26.785 20.0466C27.2583 20.0832 27.8417 20.1299 28.2417 19.7932C28.5417 19.8366 29.3917 20.3666 30.095 20.9566ZM24.7083 33.9332C24.7273 33.9958 24.7337 34.0616 24.7272 34.1266C24.7207 34.1917 24.7014 34.2549 24.6705 34.3125C24.6395 34.3701 24.5974 34.421 24.5467 34.4623C24.496 34.5036 24.4377 34.5345 24.375 34.5532C22.2993 35.1674 20.1157 35.3277 17.9725 35.0232C15.8293 34.7188 13.7768 33.9567 11.9542 32.7887C10.1317 31.6207 8.58181 30.0741 7.4099 28.2541C6.23799 26.4341 5.47146 24.3832 5.16239 22.2406C4.85331 20.0981 5.00892 17.9142 5.61864 15.8371C6.22836 13.7601 7.27792 11.8386 8.69604 10.2031C10.1142 8.56759 11.8676 7.25643 13.8374 6.35863C15.8071 5.46083 17.947 4.99743 20.1117 4.9999C21.8924 4.99213 23.6601 5.30257 25.3317 5.91656C25.3999 5.93286 25.464 5.96334 25.5197 6.00604C25.5754 6.04873 25.6215 6.10268 25.655 6.16437C25.6885 6.22606 25.7086 6.29411 25.7141 6.36409C25.7195 6.43407 25.7102 6.50442 25.6867 6.57055C25.6631 6.63668 25.6259 6.69711 25.5775 6.74792C25.5291 6.79872 25.4705 6.83876 25.4056 6.86543C25.3406 6.89209 25.2708 6.90479 25.2006 6.90269C25.1305 6.90058 25.0615 6.88373 24.9983 6.85323C22.7315 6.01522 20.2866 5.77741 17.9007 6.16288C15.5149 6.54835 13.2692 7.54401 11.3817 9.05323C12.5517 9.05323 14.1183 9.21656 14.815 9.8899C14.9517 10.0171 15.0593 10.1723 15.1306 10.3449C15.202 10.5174 15.2353 10.7033 15.2283 10.8899C15.1883 11.6299 15.3517 12.1732 15.6783 12.3766C16.005 12.5799 16.5483 12.4899 17.2317 12.1266C17.751 11.8598 18.3169 11.6957 18.8983 11.6432C19.034 11.63 19.1694 11.6712 19.2748 11.7577C19.3801 11.8443 19.4467 11.9692 19.46 12.1049C19.4733 12.2406 19.4321 12.376 19.3455 12.4813C19.2589 12.5867 19.134 12.6533 18.9983 12.6666C18.5441 12.7049 18.1016 12.8305 17.695 13.0366C17.2038 13.3267 16.6483 13.4904 16.0783 13.5132C15.7444 13.5189 15.4159 13.4286 15.1317 13.2532C14.485 12.8432 14.1617 11.9966 14.2183 10.8699C14.2215 10.8233 14.2135 10.7765 14.1949 10.7336C14.1763 10.6907 14.1478 10.6529 14.1117 10.6232C13.565 10.0866 11.5583 9.9999 10.205 10.0866C8.18305 12.0989 6.81969 14.6776 6.29531 17.4817C5.77093 20.2857 6.11023 23.1829 7.26833 25.7899C7.92814 25.6332 8.57459 25.4248 9.20166 25.1666C9.26267 25.1351 9.3295 25.1165 9.39799 25.112C9.46649 25.1075 9.53518 25.1172 9.59978 25.1403C9.66439 25.1635 9.72353 25.1998 9.77352 25.2468C9.8235 25.2939 9.86327 25.3507 9.89034 25.4138C9.91741 25.4769 9.93119 25.5448 9.93085 25.6135C9.9305 25.6821 9.91602 25.75 9.88831 25.8128C9.8606 25.8756 9.82026 25.932 9.7698 25.9785C9.71934 26.0251 9.65983 26.0607 9.59499 26.0832C8.98531 26.34 8.35679 26.5495 7.71499 26.7099C9.23303 29.5682 11.6918 31.8145 14.6753 33.0688C17.6588 34.323 20.9839 34.5083 24.0883 33.5932C24.2156 33.5561 24.3525 33.5711 24.4687 33.6348C24.585 33.6986 24.6712 33.8059 24.7083 33.9332ZM35.165 20.0766C35.1761 22.6548 34.5224 25.1924 33.2671 27.4444C32.0117 29.6964 30.1971 31.5868 27.9983 32.9332C27.9203 32.9817 27.8302 33.0071 27.7383 33.0066C27.6301 33.006 27.525 32.9703 27.4388 32.9049C27.3526 32.8394 27.2899 32.7478 27.2602 32.6437C27.2305 32.5396 27.2354 32.4287 27.2742 32.3277C27.3129 32.2266 27.3834 32.1408 27.475 32.0832C29.3616 30.9173 30.9469 29.3231 32.1023 27.43C33.2577 25.5368 33.9507 23.398 34.125 21.187C34.2994 18.9761 33.9502 16.7551 33.1058 14.7043C32.2614 12.6534 30.9456 10.8305 29.265 9.38323C28.855 9.76656 27.8983 10.9799 29.2383 13.0999C29.925 14.1899 30.115 14.8499 29.905 15.3799C29.6617 15.9666 29.0317 16.1132 28.3617 16.2699C27.7932 16.3654 27.2487 16.5703 26.7583 16.8732C26.0996 17.3369 25.317 17.5923 24.5117 17.6066C24.2487 17.6288 23.9842 17.5908 23.7382 17.4955C23.4921 17.4002 23.271 17.2501 23.0917 17.0566C22.815 16.6899 22.575 15.8932 24.0683 14.6799C24.2283 14.5499 24.715 14.1532 24.3117 13.1166C23.775 11.7366 22.205 10.4499 21.5517 10.1999V10.2366C21.655 10.6466 21.975 11.9032 20.9317 12.3732C20.8105 12.4276 20.6728 12.4316 20.5487 12.3844C20.4246 12.3372 20.3244 12.2427 20.27 12.1216C20.2156 12.0004 20.2116 11.8627 20.2588 11.7386C20.306 11.6145 20.4005 11.5143 20.5217 11.4599C20.605 11.4232 20.7983 11.3366 20.5817 10.4799C20.365 9.62323 20.8083 9.3099 21.0117 9.22656C22.0317 8.80323 24.0117 10.6032 24.875 12.0266C25.7383 13.4499 25.645 14.6932 24.6883 15.4566C23.8517 16.1232 23.8783 16.4566 23.8783 16.4566C23.9423 16.5153 24.0224 16.5536 24.1083 16.5666C24.8367 16.6694 25.5768 16.488 26.175 16.0599C26.7676 15.6786 27.4307 15.4201 28.125 15.2999C28.425 15.2299 28.925 15.1132 28.9717 15.0032C28.9717 14.9766 29.0617 14.7032 28.3883 13.6366C26.785 11.0999 27.8683 9.42323 28.485 8.76323C27.9168 8.34125 27.3185 7.96135 26.695 7.62656C26.6368 7.5957 26.5852 7.55368 26.5432 7.50289C26.5012 7.4521 26.4697 7.39353 26.4503 7.33055C26.431 7.26756 26.4242 7.20137 26.4305 7.13578C26.4367 7.07018 26.4558 7.00645 26.4867 6.94823C26.5175 6.89001 26.5595 6.83844 26.6103 6.79646C26.6611 6.75449 26.7197 6.72292 26.7827 6.70358C26.8457 6.68423 26.9118 6.67748 26.9774 6.68371C27.043 6.68995 27.1068 6.70904 27.165 6.7399C29.5845 8.02606 31.6078 9.9473 33.0173 12.2971C34.4269 14.6469 35.1694 17.3364 35.165 20.0766ZM26.4683 33.2899C26.4816 33.3537 26.4816 33.4195 26.4683 33.4832C26.4619 33.5154 26.4518 33.5467 26.4383 33.5766C26.4273 33.607 26.4127 33.6361 26.395 33.6632C26.3766 33.6909 26.3554 33.7166 26.3317 33.7399C26.3076 33.7628 26.282 33.784 26.255 33.8032L26.1683 33.8499L26.075 33.8766C26.0429 33.8798 26.0105 33.8798 25.9783 33.8766C25.8458 33.8764 25.7187 33.8237 25.625 33.7299C25.5314 33.6362 25.4788 33.5091 25.4788 33.3766C25.4788 33.2441 25.5314 33.117 25.625 33.0232C25.6483 32.9995 25.674 32.9783 25.7017 32.9599C25.729 32.9417 25.7581 32.9261 25.7883 32.9132L25.8817 32.8866C25.9629 32.8719 26.0466 32.8777 26.1251 32.9033C26.2036 32.9289 26.2746 32.9735 26.3317 33.0332C26.3546 33.0573 26.3757 33.0829 26.395 33.1099C26.4127 33.137 26.4273 33.1661 26.4383 33.1966C26.4518 33.2265 26.4619 33.2578 26.4683 33.2899ZM10.4683 24.4132C10.8917 24.0199 10.8483 23.7466 10.7517 23.5332C10.4442 22.9322 10.0623 22.3722 9.61499 21.8666C8.84166 20.9132 7.88166 19.7299 9.19499 18.5599C9.75166 18.0632 10.0217 17.5799 9.95499 17.1999C9.88833 16.8199 9.54833 16.5332 8.98166 16.3132C8.49273 16.1159 8.03207 15.8547 7.61166 15.5366C7.51778 15.4518 7.45924 15.3349 7.44768 15.2089C7.43613 15.083 7.47239 14.9573 7.54927 14.8569C7.62615 14.7565 7.73801 14.6887 7.8626 14.667C7.98719 14.6454 8.11537 14.6714 8.22166 14.7399C8.56758 15.007 8.94902 15.2247 9.35499 15.3866C10.2583 15.7332 10.8217 16.3332 10.945 16.9999C11.035 17.5199 10.9217 18.3332 9.86499 19.2799C9.34833 19.7399 9.42166 20.0099 10.395 21.2099C10.8983 21.7908 11.3251 22.4338 11.665 23.1232C11.8517 23.5299 12.0283 24.3332 11.1517 25.1466C11.1035 25.1914 11.0469 25.2263 10.9852 25.2491C10.9235 25.2719 10.8578 25.2822 10.7921 25.2794C10.7263 25.2766 10.6618 25.2608 10.6022 25.2328C10.5426 25.2049 10.4892 25.1653 10.445 25.1166C10.4 25.0689 10.365 25.0128 10.342 24.9514C10.3189 24.8901 10.3083 24.8248 10.3108 24.7593C10.3133 24.6938 10.3288 24.6295 10.3564 24.5701C10.384 24.5107 10.4232 24.4573 10.4717 24.4132H10.4683ZM30.2217 17.8732C30.1941 17.8559 30.1684 17.8358 30.145 17.8132C30.051 17.7183 29.9983 17.5901 29.9983 17.4566C29.9983 17.3911 30.0119 17.3264 30.0383 17.2666C30.0494 17.2361 30.0639 17.207 30.0817 17.1799C30.1009 17.1529 30.1221 17.1273 30.145 17.1032C30.1675 17.0796 30.1933 17.0594 30.2217 17.0432C30.2487 17.0244 30.2778 17.0088 30.3083 16.9966C30.3378 16.9827 30.3693 16.9737 30.4017 16.9699C30.4819 16.9542 30.5647 16.9581 30.643 16.9813C30.7214 17.0045 30.793 17.0464 30.8517 17.1032C30.8746 17.1273 30.8957 17.1529 30.915 17.1799C30.9325 17.2077 30.9481 17.2366 30.9617 17.2666C30.9617 17.2966 30.9817 17.3299 30.9883 17.3599C30.9914 17.392 30.9914 17.4244 30.9883 17.4566C30.9888 17.5223 30.9761 17.5876 30.9512 17.6484C30.9262 17.7093 30.8894 17.7646 30.8429 17.8111C30.7964 17.8576 30.7411 17.8944 30.6802 17.9194C30.6193 17.9444 30.5541 17.957 30.4883 17.9566H30.3917C30.3275 17.9423 30.2665 17.9163 30.2117 17.8799L30.2217 17.8732ZM12.1017 13.6232C12.0739 13.6062 12.0482 13.586 12.025 13.5632C11.9312 13.4689 11.8785 13.3413 11.8785 13.2082C11.8785 13.0752 11.9312 12.9475 12.025 12.8532C12.0491 12.8314 12.0747 12.8113 12.1017 12.7932C12.1565 12.7569 12.2175 12.7309 12.2817 12.7166C12.3624 12.7007 12.4459 12.7049 12.5246 12.729C12.6033 12.7531 12.6748 12.7962 12.7329 12.8546C12.7909 12.913 12.8336 12.9847 12.8573 13.0636C12.8809 13.1424 12.8847 13.2259 12.8683 13.3066C12.8683 13.3366 12.8517 13.3699 12.8417 13.3999C12.8281 13.4298 12.8125 13.4588 12.795 13.4866C12.7757 13.5136 12.7546 13.5392 12.7317 13.5632C12.638 13.657 12.5109 13.7098 12.3783 13.7099C12.3462 13.7133 12.3138 13.7133 12.2817 13.7099C12.2175 13.6956 12.1565 13.6696 12.1017 13.6332V13.6232ZM17.8117 18.3532C17.7176 18.4464 17.5907 18.4991 17.4583 18.4999C17.3258 18.4998 17.1987 18.447 17.105 18.3532C17.0821 18.3292 17.0609 18.3036 17.0417 18.2766C17.0241 18.2488 17.0085 18.2198 16.995 18.1899C16.9841 18.1594 16.9752 18.1282 16.9683 18.0966C16.955 18.0328 16.955 17.967 16.9683 17.9032C16.9752 17.8716 16.9841 17.8404 16.995 17.8099C17.0085 17.78 17.0241 17.751 17.0417 17.7232C17.0609 17.6962 17.0821 17.6706 17.105 17.6466C17.2008 17.5568 17.3271 17.5069 17.4583 17.5069C17.5896 17.5069 17.7159 17.5568 17.8117 17.6466C17.8346 17.6706 17.8557 17.6962 17.875 17.7232C17.8927 17.7504 17.9073 17.7794 17.9183 17.8099C17.9318 17.8398 17.9419 17.8711 17.9483 17.9032C17.9518 17.9354 17.9518 17.9678 17.9483 17.9999C17.9509 18.131 17.9018 18.2579 17.8117 18.3532ZM11.4783 29.7799C11.4071 29.7104 11.3588 29.6208 11.3398 29.5232C11.3207 29.4255 11.3318 29.3244 11.3717 29.2332C11.3834 29.2031 11.3979 29.1741 11.415 29.1466C11.4343 29.1206 11.4555 29.0961 11.4783 29.0732C11.5015 29.0494 11.5272 29.0282 11.555 29.0099L11.6417 28.9632C11.6717 28.9508 11.703 28.9419 11.735 28.9366C11.8155 28.9207 11.8986 28.9249 11.9771 28.9487C12.0555 28.9725 12.1269 29.0153 12.185 29.0732C12.2317 29.1194 12.2688 29.1744 12.294 29.2351C12.3192 29.2958 12.332 29.3609 12.3317 29.4266C12.3348 29.4587 12.3348 29.4911 12.3317 29.5232C12.3248 29.5549 12.3159 29.5861 12.305 29.6166C12.2914 29.6465 12.2758 29.6754 12.2583 29.7032C12.239 29.7303 12.2179 29.7559 12.195 29.7799C12.1013 29.8737 11.9742 29.9264 11.8417 29.9266C11.8095 29.93 11.7771 29.93 11.745 29.9266C11.649 29.9043 11.5604 29.8571 11.4883 29.7899L11.4783 29.7799ZM30.0183 27.2999C30.0664 27.3479 30.1042 27.4051 30.1294 27.4681C30.1546 27.5312 30.1667 27.5987 30.165 27.6666C30.165 27.7992 30.1123 27.9264 30.0185 28.0201C29.9248 28.1139 29.7976 28.1666 29.665 28.1666C29.5324 28.1666 29.4052 28.1139 29.3114 28.0201C29.2177 27.9264 29.165 27.7992 29.165 27.6666C29.1651 27.534 29.2179 27.4069 29.3117 27.3132C29.4057 27.2216 29.5311 27.1693 29.6624 27.1668C29.7936 27.1644 29.9209 27.2119 30.0183 27.2999ZM22.7917 7.36323C22.8051 7.39312 22.8152 7.42443 22.8217 7.45656C22.8249 7.4887 22.8249 7.52109 22.8217 7.55323C22.8215 7.68579 22.7688 7.81289 22.675 7.90656C22.5812 8.0002 22.4542 8.05279 22.3217 8.05279C22.1892 8.05279 22.0621 8.0002 21.9683 7.90656C21.8745 7.81289 21.8218 7.68579 21.8217 7.55323C21.8184 7.52109 21.8184 7.4887 21.8217 7.45656C21.8281 7.42443 21.8382 7.39312 21.8517 7.36323C21.8627 7.33277 21.8773 7.30368 21.895 7.27656C21.9143 7.24955 21.9354 7.22393 21.9583 7.1999C22.0541 7.11014 22.1804 7.06019 22.3117 7.06019C22.4429 7.06019 22.5692 7.11014 22.665 7.1999C22.6879 7.22393 22.709 7.24955 22.7283 7.27656C22.7531 7.30263 22.7743 7.33175 22.7917 7.36323Z" fill="#BE1300"/>
</svg>
