<svg width="40" height="40" viewBox="0 0 40 40" fill="none" xmlns="http://www.w3.org/2000/svg">
<path d="M5.84613 30.6666C5.33376 30.6666 4.89797 30.487 4.53877 30.1278C4.17959 29.7686 4 29.3328 4 28.8205V15.1794C4 14.667 4.17959 14.2312 4.53877 13.872C4.89797 13.5128 5.33376 13.3333 5.84613 13.3333H12V11.1794C12 10.667 12.1796 10.2312 12.5388 9.87202C12.898 9.51284 13.3338 9.33325 13.8461 9.33325H18.1539C18.6662 9.33325 19.102 9.51284 19.4612 9.87202C19.8204 10.2312 20 10.667 20 11.1794V13.3333H26.1539C26.6662 13.3333 27.102 13.5128 27.4612 13.872C27.8204 14.2312 28 14.667 28 15.1794V28.8205C28 29.3328 27.8204 29.7686 27.4612 30.1278C27.102 30.487 26.6662 30.6666 26.1539 30.6666H5.84613ZM13.0256 13.3333H18.9744V11.1794C18.9744 10.9743 18.8889 10.7862 18.718 10.6153C18.547 10.4444 18.359 10.3589 18.1539 10.3589H13.8461C13.641 10.3589 13.453 10.4444 13.282 10.6153C13.1111 10.7862 13.0256 10.9743 13.0256 11.1794V13.3333ZM26.9744 23.1717H18.2128V23.9468C18.2128 24.1976 18.1253 24.4132 17.9502 24.5935C17.7751 24.7739 17.5545 24.864 17.2882 24.864H14.718C14.4684 24.864 14.2534 24.7725 14.0731 24.5894C13.8927 24.4062 13.8026 24.1901 13.8026 23.941V23.1717H5.02563V28.8205C5.02563 29.0256 5.1111 29.2136 5.28203 29.3846C5.45299 29.5555 5.64102 29.641 5.84613 29.641H26.1539C26.359 29.641 26.547 29.5555 26.718 29.3846C26.8889 29.2136 26.9744 29.0256 26.9744 28.8205V23.1717ZM14.8282 23.8384H17.1872V21.4794H14.8282V23.8384ZM5.02563 22.1461H13.8026V21.3706C13.8026 21.103 13.8943 20.8833 14.0777 20.7115C14.2611 20.5397 14.4776 20.4538 14.7272 20.4538H17.2974C17.5637 20.4538 17.7828 20.5412 17.9548 20.716C18.1268 20.8907 18.2128 21.111 18.2128 21.3769V22.1461H26.9744V15.1794C26.9744 14.9743 26.8889 14.7862 26.718 14.6153C26.547 14.4444 26.359 14.3589 26.1539 14.3589H5.84613C5.64102 14.3589 5.45299 14.4444 5.28203 14.6153C5.1111 14.7862 5.02563 14.9743 5.02563 15.1794V22.1461Z" fill="#BE1300"/>
</svg>
