<svg width="38" height="23" viewBox="0 0 38 23" fill="none" xmlns="http://www.w3.org/2000/svg">
<path d="M9.5 8.3125C10.2046 8.3125 10.8934 8.10356 11.4792 7.71211C12.0651 7.32066 12.5217 6.76427 12.7913 6.11331C13.061 5.46235 13.1315 4.74605 12.994 4.05499C12.8566 3.36394 12.5173 2.72916 12.0191 2.23093C11.5208 1.73271 10.8861 1.39341 10.195 1.25595C9.50395 1.11849 8.78765 1.18904 8.13669 1.45868C7.48573 1.72832 6.92934 2.18493 6.53789 2.77078C6.14644 3.35663 5.9375 4.04541 5.9375 4.75C5.9375 5.69484 6.31283 6.60097 6.98093 7.26907C7.64903 7.93717 8.55517 8.3125 9.5 8.3125ZM9.5 2.375C9.96973 2.375 10.4289 2.51429 10.8195 2.77526C11.21 3.03623 11.5145 3.40715 11.6942 3.84113C11.874 4.2751 11.921 4.75264 11.8294 5.21334C11.7377 5.67405 11.5115 6.09723 11.1794 6.42938C10.8472 6.76153 10.424 6.98773 9.96334 7.07937C9.50263 7.17101 9.0251 7.12397 8.59113 6.94422C8.15715 6.76446 7.78623 6.46005 7.52526 6.06948C7.26429 5.67891 7.125 5.21973 7.125 4.75C7.125 4.12011 7.37522 3.51602 7.82062 3.07062C8.26602 2.62522 8.87011 2.375 9.5 2.375Z" fill="#BE1300"/>
<path d="M9.5 8.90625C7.76781 8.90625 6.10656 9.59436 4.88171 10.8192C3.65686 12.0441 2.96875 13.7053 2.96875 15.4375V17.2188C2.96875 17.3762 3.03131 17.5272 3.14266 17.6386C3.25401 17.7499 3.40503 17.8125 3.5625 17.8125H15.4375C15.595 17.8125 15.746 17.7499 15.8573 17.6386C15.9687 17.5272 16.0312 17.3762 16.0312 17.2188V15.4375C16.0312 13.7053 15.3431 12.0441 14.1183 10.8192C12.8934 9.59436 11.2322 8.90625 9.5 8.90625ZM14.8438 16.625H4.15625V15.4375C4.15625 14.0202 4.71925 12.661 5.7214 11.6589C6.72355 10.6568 8.08275 10.0938 9.5 10.0938C10.9173 10.0938 12.2765 10.6568 13.2786 11.6589C14.2807 12.661 14.8438 14.0202 14.8438 15.4375V16.625Z" fill="#BE1300"/>
<path d="M28.5 8.3125C29.2046 8.3125 29.8934 8.10356 30.4792 7.71211C31.0651 7.32066 31.5217 6.76427 31.7913 6.11331C32.061 5.46235 32.1315 4.74605 31.994 4.05499C31.8566 3.36394 31.5173 2.72916 31.0191 2.23093C30.5208 1.73271 29.8861 1.39341 29.195 1.25595C28.504 1.11849 27.7877 1.18904 27.1367 1.45868C26.4857 1.72832 25.9293 2.18493 25.5379 2.77078C25.1464 3.35663 24.9375 4.04541 24.9375 4.75C24.9375 5.69484 25.3128 6.60097 25.9809 7.26907C26.649 7.93717 27.5552 8.3125 28.5 8.3125ZM28.5 2.375C28.9697 2.375 29.4289 2.51429 29.8195 2.77526C30.21 3.03623 30.5145 3.40715 30.6942 3.84113C30.874 4.2751 30.921 4.75264 30.8294 5.21334C30.7377 5.67405 30.5115 6.09723 30.1794 6.42938C29.8472 6.76153 29.424 6.98773 28.9633 7.07937C28.5026 7.17101 28.0251 7.12397 27.5911 6.94422C27.1572 6.76446 26.7862 6.46005 26.5253 6.06948C26.2643 5.67891 26.125 5.21973 26.125 4.75C26.125 4.12011 26.3752 3.51602 26.8206 3.07062C27.266 2.62522 27.8701 2.375 28.5 2.375Z" fill="#BE1300"/>
<path d="M28.5 8.90625C26.7678 8.90625 25.1066 9.59436 23.8817 10.8192C22.6569 12.0441 21.9688 13.7053 21.9688 15.4375V17.2188C21.9688 17.3762 22.0313 17.5272 22.1427 17.6386C22.254 17.7499 22.405 17.8125 22.5625 17.8125H34.4375C34.595 17.8125 34.746 17.7499 34.8573 17.6386C34.9687 17.5272 35.0312 17.3762 35.0312 17.2188V15.4375C35.0312 13.7053 34.3431 12.0441 33.1183 10.8192C31.8934 9.59436 30.2322 8.90625 28.5 8.90625ZM33.8438 16.625H23.1562V15.4375C23.1562 14.0202 23.7193 12.661 24.7214 11.6589C25.7235 10.6568 27.0827 10.0938 28.5 10.0938C29.9173 10.0938 31.2765 10.6568 32.2786 11.6589C33.2807 12.661 33.8438 14.0202 33.8438 15.4375V16.625Z" fill="#BE1300"/>
<circle cx="18.5" cy="16.5" r="6" fill="white" stroke="#BE1300"/>
<g clip-path="url(#clip0_76_69)">
<path d="M20.6364 14.8755C20.6124 14.8993 20.5933 14.9276 20.5804 14.9587C20.5674 14.9899 20.5607 15.0233 20.5607 15.0571C20.5607 15.0909 20.5674 15.1243 20.5804 15.1555C20.5933 15.1867 20.6124 15.215 20.6364 15.2388L21.8132 16.4156H15.791C15.7231 16.4156 15.6581 16.4425 15.6101 16.4905C15.5621 16.5385 15.5352 16.6035 15.5352 16.6714C15.5352 16.7392 15.5621 16.8043 15.6101 16.8523C15.6581 16.9003 15.7231 16.9272 15.791 16.9272H21.808L20.6364 18.0963C20.5887 18.1443 20.562 18.2091 20.562 18.2767C20.562 18.3443 20.5887 18.4091 20.6364 18.4571C20.6843 18.5047 20.7491 18.5315 20.8167 18.5315C20.8843 18.5315 20.9491 18.5047 20.9971 18.4571L22.6241 16.83C22.646 16.809 22.6635 16.7838 22.6754 16.7558C22.6873 16.7279 22.6934 16.6979 22.6934 16.6675C22.6934 16.6372 22.6873 16.6072 22.6754 16.5792C22.6635 16.5513 22.646 16.5261 22.6241 16.5051L20.9996 14.8755C20.9758 14.8515 20.9476 14.8325 20.9164 14.8195C20.8852 14.8065 20.8518 14.7998 20.818 14.7998C20.7842 14.7998 20.7508 14.8065 20.7196 14.8195C20.6884 14.8325 20.6601 14.8515 20.6364 14.8755Z" fill="#BE1300"/>
</g>
<defs>
<clipPath id="clip0_76_69">
<rect width="7.6" height="7.6" fill="white" transform="translate(15 13)"/>
</clipPath>
</defs>
</svg>
